<?xml version="1.0" encoding="utf-8"?>
<!-- Generator: Adobe Illustrator 19.0.0, SVG Export Plug-In . SVG Version: 6.00 Build 0)  -->
<svg version="1.1" id="Layer_1" xmlns="http://www.w3.org/2000/svg" xmlns:xlink="http://www.w3.org/1999/xlink" x="0px" y="0px"
	 viewBox="0 0 206.3 108.2" style="enable-background:new 0 0 206.3 108.2;" xml:space="preserve">
<style type="text/css">
	.st0{fill:#807F7F;}
	.st1{fill:#3F4040;}
</style>
<g id="XMLID_2_">
	<path id="XMLID_3_" d="M157.2,75.8h-5.1c-7.8,0-14.9-4.1-18.8-10.9l0,0c-3.9-6.7-3.9-15,0-21.7l0,0c3.9-6.7,11-10.9,18.8-10.9h12.5
		h37C193.5,13.9,175.2,0.7,153.9,0c-31.3-1-56.8,24.6-55.8,55.8c0.8,24.6,18.2,45.2,41.3,50.8L157.2,75.8z"/>
	<path id="XMLID_7_" class="st0" d="M173.6,60.7l-27.2,47.2c1.3,0.1,2.6,0.2,4,0.3c16.1,0.5,30.7-6,40.9-16.8L173.6,60.7z"/>
	<path id="XMLID_8_" class="st1" d="M204.1,39.1h-35.3L195.9,86c6.8-9.4,10.7-21,10.3-33.6C206.1,47.7,205.4,43.3,204.1,39.1z"/>
</g>
<path id="XMLID_5_" d="M30.4,84.5c2.1,0,4.1-0.2,6-0.6c1.9-0.4,3.8-1,5.6-1.8c1.8-0.8,3.3-2,4.4-3.6c1.1-1.6,1.7-3.4,1.7-5.6
	c0-2.5-0.6-4.6-1.8-6.5c-1.2-1.8-2.8-3.2-4.8-4.2c-2-1-4.1-1.6-6.3-2.1c-2.2-0.4-4.4-0.6-6.8-0.6c-2.1,0-4.2,0.3-6.3,0.8
	c-2.2,0.5-3.4,0.8-3.7,0.8c-0.7,0-1.3-0.1-1.6-0.4l-0.1-0.4V47.9l27.1-23.1V24H26.2c-3.8,0-6.5,1.1-8,3.3c-0.8,1.2-1.7,3.9-2.9,8.1
	L0,35.3V-0.6h84.7v20.9c0,0.2-7.5,6.4-22.5,18.8c7.6,0.7,14.1,4,19.6,9.9c5.5,5.9,8.2,12.6,8.2,20c0,12.5-4.6,22.1-13.8,28.9
	C67,104.6,54.5,108,38.6,108c-8.4,0-15.5-0.5-21.5-1.4c-6-1-11.3-3-16.1-6.2V72.9C10.6,80.7,20.4,84.5,30.4,84.5z"/>
</svg>
